<svg xmlns="http://www.w3.org/2000/svg" width="80" height="80" viewBox="0 0 80 80"><defs></defs><path d="M30,52 V72 Q30,78 36,78 H44 Q50,78 50,72 V52" fill="none" stroke="#12141c" stroke-width="10" stroke-linejoin="round" stroke-linecap="round"/><path d="M30,52 V72 Q30,78 36,78 H44 Q50,78 50,72 V52" fill="none" stroke="#ff8c28" stroke-width="5"/><rect x="2" y="2" width="76" height="58" rx="6" fill="#6a717f" stroke="#12141c" stroke-width="4" stroke-linejoin="round" stroke-linecap="round"/><rect x="6" y="6" width="19" height="50" rx="3" fill="#8f959f"/><rect x="55" y="6" width="19" height="50" rx="3" fill="#50555f"/><ellipse cx="40" cy="18" rx="16.72" ry="6" fill="#d8a640" stroke="#12141c" stroke-width="2" stroke-linejoin="round" stroke-linecap="round"/><path d="M10,33.900000000000006 H70" stroke="#3a3e46" stroke-width="3"/><rect x="2" y="48" width="76" height="12" rx="4" fill="#454953" stroke="#12141c" stroke-width="4" stroke-linejoin="round" stroke-linecap="round"/><rect x="2" y="2" width="76" height="58" rx="6" fill="none" stroke="#12141c" stroke-width="4" stroke-linejoin="round" stroke-linecap="round"/></svg>