<svg xmlns="http://www.w3.org/2000/svg" width="96" height="48" viewBox="0 0 96 48"><defs></defs><path d="M10,14 H20 M76,14 H86" stroke="#8b94a4" stroke-width="4"/><path d="M10,14 H20 M76,14 H86" stroke="#12141c" stroke-width="1" stroke-linejoin="round" stroke-linecap="round"/><path d="M10,24 H20 M76,24 H86" stroke="#8b94a4" stroke-width="4"/><path d="M10,24 H20 M76,24 H86" stroke="#12141c" stroke-width="1" stroke-linejoin="round" stroke-linecap="round"/><path d="M10,32 H20 M76,32 H86" stroke="#8b94a4" stroke-width="4"/><path d="M10,32 H20 M76,32 H86" stroke="#12141c" stroke-width="1" stroke-linejoin="round" stroke-linecap="round"/><rect x="18" y="3" width="60" height="42" rx="8" fill="#2a2f3a" stroke="#12141c" stroke-width="4" stroke-linejoin="round" stroke-linecap="round"/><rect x="22" y="7" width="52" height="8" rx="4" fill="#4a4e58"/><circle cx="48" cy="20" r="13" fill="#e83c3c" stroke="#12141c" stroke-width="3" stroke-linejoin="round" stroke-linecap="round"/><rect x="41" y="29" width="14" height="10" rx="2" fill="#e83c3c" stroke="#12141c" stroke-width="3" stroke-linejoin="round" stroke-linecap="round"/><circle cx="43" cy="20" r="4" fill="#12141c"/><circle cx="53" cy="20" r="4" fill="#12141c"/><path d="M46,30 V38 M50,30 V38" stroke="#12141c" stroke-width="2"/></svg>