<svg xmlns="http://www.w3.org/2000/svg" width="96" height="48" viewBox="0 0 96 48"><defs></defs><path d="M10,14 H20 M76,14 H86" stroke="#8b94a4" stroke-width="4"/><path d="M10,14 H20 M76,14 H86" stroke="#12141c" stroke-width="1" stroke-linejoin="round" stroke-linecap="round"/><path d="M10,24 H20 M76,24 H86" stroke="#8b94a4" stroke-width="4"/><path d="M10,24 H20 M76,24 H86" stroke="#12141c" stroke-width="1" stroke-linejoin="round" stroke-linecap="round"/><path d="M10,32 H20 M76,32 H86" stroke="#8b94a4" stroke-width="4"/><path d="M10,32 H20 M76,32 H86" stroke="#12141c" stroke-width="1" stroke-linejoin="round" stroke-linecap="round"/><rect x="18" y="3" width="60" height="42" rx="8" fill="#2a2f3a" stroke="#12141c" stroke-width="4" stroke-linejoin="round" stroke-linecap="round"/><rect x="22" y="7" width="52" height="8" rx="4" fill="#4a4e58"/><circle cx="48" cy="24" r="12" fill="none" stroke="#ffc828" stroke-width="4"/><path d="M48,8 V18 M48,30 V40 M32,24 H42 M54,24 H64" stroke="#ffc828" stroke-width="4" stroke-linecap="round"/><circle cx="48" cy="24" r="3" fill="#ff5050"/></svg>