<svg xmlns="http://www.w3.org/2000/svg" width="96" height="48" viewBox="0 0 96 48"><defs><radialGradient id="g"><stop offset="0" stop-color="#fff"/><stop offset=".35" stop-color="#ff7777"/><stop offset="1" stop-color="#ff3c3c" stop-opacity="0"/></radialGradient></defs><ellipse cx="30" cy="24" rx="30" ry="22" fill="url(#g)"/><path d="M8,10 H38" stroke="#12141c" stroke-width="9" stroke-linejoin="round" stroke-linecap="round"/><path d="M8,10 H38" stroke="#5b6270" stroke-width="5"/><path d="M14,10 Q14,38 30,38 Q42,38 42,10" fill="none" stroke="#12141c" stroke-width="6" stroke-linejoin="round" stroke-linecap="round"/><path d="M14,10 Q14,38 30,38 Q42,38 42,10" fill="none" stroke="#5b6270" stroke-width="3"/><path d="M24,12 Q22,26 30,30" fill="none" stroke="#12141c" stroke-width="8" stroke-linejoin="round" stroke-linecap="round"/><path d="M24,12 Q22,26 30,30" fill="none" stroke="#ff3c3c" stroke-width="4"/><path d="M56,40 Q50,32 56,24 Q62,16 56,8" fill="none" stroke="#12141c" stroke-width="7" stroke-linejoin="round" stroke-linecap="round"/><path d="M56,40 Q50,32 56,24 Q62,16 56,8" fill="none" stroke="#ff4a3c" stroke-width="3"/><path d="M68,40 Q62,32 68,24 Q74,16 68,8" fill="none" stroke="#12141c" stroke-width="7" stroke-linejoin="round" stroke-linecap="round"/><path d="M68,40 Q62,32 68,24 Q74,16 68,8" fill="none" stroke="#ff4a3c" stroke-width="3"/><path d="M80,40 Q74,32 80,24 Q86,16 80,8" fill="none" stroke="#12141c" stroke-width="7" stroke-linejoin="round" stroke-linecap="round"/><path d="M80,40 Q74,32 80,24 Q86,16 80,8" fill="none" stroke="#ff4a3c" stroke-width="3"/></svg>