<svg xmlns="http://www.w3.org/2000/svg" width="256" height="256" viewBox="0 0 256 256"><defs></defs><path d="M80,128 Q40,110 14,124 Q30,136 14,150 Q44,150 80,140Z" fill="#ff6a5a" stroke="#12141c" stroke-width="4" stroke-linejoin="round" stroke-linecap="round"/><path d="M24,132 Q44,128 70,132" stroke="#ffa094" stroke-width="3" fill="none"/><rect x="140" y="85.2" width="70" height="28" rx="14" fill="#5abf87" stroke="#12141c" stroke-width="4" stroke-linejoin="round" stroke-linecap="round"/><circle cx="214" cy="99.2" r="20" fill="#fff" stroke="#12141c" stroke-width="4" stroke-linejoin="round" stroke-linecap="round"/><circle cx="210" cy="94.2" r="6" fill="#fff" opacity=".7"/><rect x="140" y="142.8" width="70" height="28" rx="14" fill="#5abf87" stroke="#12141c" stroke-width="4" stroke-linejoin="round" stroke-linecap="round"/><circle cx="214" cy="156.8" r="20" fill="#fff" stroke="#12141c" stroke-width="4" stroke-linejoin="round" stroke-linecap="round"/><circle cx="210" cy="151.8" r="6" fill="#fff" opacity=".7"/><ellipse cx="118" cy="128" rx="70.2" ry="91.8" fill="#54b37e" stroke="#12141c" stroke-width="4" stroke-linejoin="round" stroke-linecap="round"/><ellipse cx="112" cy="100.46000000000001" rx="57.564" ry="50.49" fill="#78FFB4"/><ellipse cx="118" cy="128" rx="70.2" ry="91.8" fill="none" stroke="#12141c" stroke-width="4" stroke-linejoin="round" stroke-linecap="round"/>
<path d="M84,80 Q128,62 168,90 L168,166 Q128,194 84,176" fill="none" stroke="#12141c" stroke-width="16"/><path d="M84,80 Q128,62 168,90 L168,166 Q128,194 84,176" fill="none" stroke="#ff6a5a" stroke-width="10"/><circle cx="160" cy="93.8" r="18" fill="#78FFB4" stroke="#12141c" stroke-width="4" stroke-linejoin="round" stroke-linecap="round"/><circle cx="160" cy="162.2" r="18" fill="#78FFB4" stroke="#12141c" stroke-width="4" stroke-linejoin="round" stroke-linecap="round"/>
<circle cx="112" cy="128" r="56" fill="#fff" stroke="#12141c" stroke-width="4" stroke-linejoin="round" stroke-linecap="round"/><circle cx="112" cy="128" r="46" fill="#78FFB4"/><path d="M76,100 A46,46 0 0 1 140,88" fill="none" stroke="#c9ffe1" stroke-width="8" stroke-linecap="round"/>
<path d="M112,82 L140,92 M112,174 L140,164" stroke="#12141c" stroke-width="5" stroke-linejoin="round" stroke-linecap="round"/><circle cx="148" cy="110" r="15" fill="#2a3a44" stroke="#12141c" stroke-width="4" stroke-linejoin="round" stroke-linecap="round"/><circle cx="148" cy="146" r="15" fill="#2a3a44" stroke="#12141c" stroke-width="4" stroke-linejoin="round" stroke-linecap="round"/><circle cx="152" cy="106" r="5" fill="#bfffe0"/><circle cx="152" cy="142" r="5" fill="#bfffe0"/></svg>