<svg xmlns="http://www.w3.org/2000/svg" width="256" height="256" viewBox="0 0 256 256"><defs><radialGradient id="eg"><stop offset="0" stop-color="#fff"/><stop offset=".35" stop-color="#ff8383"/><stop offset="1" stop-color="#ff3030" stop-opacity="0"/></radialGradient></defs><path d="M150,106 L150,48 L224,16" fill="none" stroke="#12141c" stroke-width="13" stroke-linejoin="round" stroke-linecap="round"/><path d="M150,106 L150,48 L224,16" fill="none" stroke="#4d772a" stroke-width="6" stroke-linejoin="round"/><path d="M140,106 L120,8 L236,16" fill="none" stroke="#12141c" stroke-width="13" stroke-linejoin="round" stroke-linecap="round"/><path d="M140,106 L120,8 L236,16" fill="none" stroke="#4d772a" stroke-width="6" stroke-linejoin="round"/><path d="M126,106 L70,32 L226,10" fill="none" stroke="#12141c" stroke-width="13" stroke-linejoin="round" stroke-linecap="round"/><path d="M126,106 L70,32 L226,10" fill="none" stroke="#4d772a" stroke-width="6" stroke-linejoin="round"/><path d="M112,106 L26,32 L200,10" fill="none" stroke="#12141c" stroke-width="13" stroke-linejoin="round" stroke-linecap="round"/><path d="M112,106 L26,32 L200,10" fill="none" stroke="#4d772a" stroke-width="6" stroke-linejoin="round"/><path d="M150,150 L150,208 L224,240" fill="none" stroke="#12141c" stroke-width="13" stroke-linejoin="round" stroke-linecap="round"/><path d="M150,150 L150,208 L224,240" fill="none" stroke="#4d772a" stroke-width="6" stroke-linejoin="round"/><path d="M140,150 L120,248 L236,240" fill="none" stroke="#12141c" stroke-width="13" stroke-linejoin="round" stroke-linecap="round"/><path d="M140,150 L120,248 L236,240" fill="none" stroke="#4d772a" stroke-width="6" stroke-linejoin="round"/><path d="M126,150 L70,224 L226,246" fill="none" stroke="#12141c" stroke-width="13" stroke-linejoin="round" stroke-linecap="round"/><path d="M126,150 L70,224 L226,246" fill="none" stroke="#4d772a" stroke-width="6" stroke-linejoin="round"/><path d="M112,150 L26,224 L200,246" fill="none" stroke="#12141c" stroke-width="13" stroke-linejoin="round" stroke-linecap="round"/><path d="M112,150 L26,224 L200,246" fill="none" stroke="#4d772a" stroke-width="6" stroke-linejoin="round"/><ellipse cx="78" cy="128" rx="66" ry="72" fill="#486f27" stroke="#12141c" stroke-width="4" stroke-linejoin="round" stroke-linecap="round"/><ellipse cx="72" cy="114" rx="50" ry="48" fill="#6EAA3C"/>
<path d="M30,128 Q78,90 126,128 M38,156 Q78,124 118,156 M40,100 Q78,64 116,100" fill="none" stroke="#314c1b" stroke-width="5"/><polygon points="92.0,128.0 76.0,144.0 60.0,128.0 76.0,112.0" fill="#e8d040" stroke="#12141c" stroke-width="3" stroke-linejoin="round" stroke-linecap="round"/>
<ellipse cx="78" cy="128" rx="66" ry="72" fill="none" stroke="#12141c" stroke-width="4" stroke-linejoin="round" stroke-linecap="round"/><ellipse cx="170" cy="128" rx="46" ry="40" fill="#6EAA3C" stroke="#12141c" stroke-width="4" stroke-linejoin="round" stroke-linecap="round"/><ellipse cx="164" cy="114" rx="26" ry="12" fill="#a1c880"/>
<path d="M206,108 Q236,112 240,124 M206,148 Q236,144 240,132" fill="none" stroke="#12141c" stroke-width="8" stroke-linejoin="round" stroke-linecap="round"/><circle cx="196" cy="112" r="16.2" fill="url(#eg)"/><circle cx="196" cy="112" r="9" fill="#ff4030" stroke="#12141c" stroke-width="3" stroke-linejoin="round" stroke-linecap="round"/><circle cx="198.25" cy="109.75" r="3.15" fill="#fff"/><circle cx="196" cy="144" r="16.2" fill="url(#eg)"/><circle cx="196" cy="144" r="9" fill="#ff4030" stroke="#12141c" stroke-width="3" stroke-linejoin="round" stroke-linecap="round"/><circle cx="198.25" cy="141.75" r="3.15" fill="#fff"/><circle cx="182" cy="128" r="4" fill="#ff4030"/></svg>