<svg xmlns="http://www.w3.org/2000/svg" width="256" height="256" viewBox="0 0 256 256"><defs></defs><ellipse cx="70" cy="40" rx="18" ry="14" fill="#8c4d16" stroke="#12141c" stroke-width="4" stroke-linejoin="round" stroke-linecap="round"/><ellipse cx="130" cy="52" rx="18" ry="14" fill="#8c4d16" stroke="#12141c" stroke-width="4" stroke-linejoin="round" stroke-linecap="round"/><ellipse cx="70" cy="216" rx="18" ry="14" fill="#8c4d16" stroke="#12141c" stroke-width="4" stroke-linejoin="round" stroke-linecap="round"/><ellipse cx="130" cy="204" rx="18" ry="14" fill="#8c4d16" stroke="#12141c" stroke-width="4" stroke-linejoin="round" stroke-linecap="round"/>
<polygon points="210,128 22,30 46,128 22,226" fill="#b3621c" stroke="#12141c" stroke-width="4" stroke-linejoin="round" stroke-linecap="round"/><polygon points="210,128 22,30 46,128" fill="#FF8C28"/><polygon points="170,118 50,60 70,118" fill="#ffc089"/><polygon points="210,128 22,30 46,128 22,226" fill="none" stroke="#12141c" stroke-width="4" stroke-linejoin="round" stroke-linecap="round"/>
<path d="M60,90 L90,128 L60,166 M100,100 L120,128 L100,156" fill="none" stroke="#804614" stroke-width="5"/>
<polygon points="248,128 190,108 190,148" fill="#f4ead8" stroke="#12141c" stroke-width="4" stroke-linejoin="round" stroke-linecap="round"/><polygon points="248,128 190,108 196,126" fill="#fff"/><circle cx="170" cy="106" r="9" fill="#fff" stroke="#12141c" stroke-width="3" stroke-linejoin="round" stroke-linecap="round"/><circle cx="173.6" cy="106" r="4.5" fill="#12141c"/><circle cx="174.95" cy="104.2" r="1.44" fill="#fff"/><circle cx="170" cy="150" r="9" fill="#fff" stroke="#12141c" stroke-width="3" stroke-linejoin="round" stroke-linecap="round"/><circle cx="173.6" cy="150" r="4.5" fill="#12141c"/><circle cx="174.95" cy="148.2" r="1.44" fill="#fff"/></svg>